<svg width="24" height="24" xmlns="http://www.w3.org/2000/svg"><path d="M14.5 5a6.5 6.5 0 016.5 6.5.503.503 0 01-.01.096 5.5 5.5 0 01-2.27 10.4L18.5 22h-14a4.492 4.492 0 01-1.056-8.863.5.5 0 11.234.972 3.493 3.493 0 00.63 6.886L4.5 21h14a4.5 4.5 0 000-9c-.45 0-.903.083-1.395.246a.5.5 0 01-.617-.28A6.501 6.501 0 0010.5 8a6.47 6.47 0 00-5.018 2.375.5.5 0 11-.773-.635 7.472 7.472 0 015.499-2.734C11.004 5.762 12.882 5 14.5 5zm9 6a.5.5 0 01.09.992L23.5 12h-1a.5.5 0 01-.09-.992L22.5 11h1zm-9-5c-1.063 0-2.291.421-3.027 1.064a7.5 7.5 0 015.707 4.022l.041.085.149-.038c.286-.066.567-.108.848-.125L18.5 11a5.48 5.48 0 011.492.205A5.5 5.5 0 0014.5 6zM8.42 4.725l.07.057.707.707a.5.5 0 01-.638.765l-.07-.057-.707-.707a.5.5 0 01.638-.765zm12.797.058a.5.5 0 01.058.637l-.058.07-.707.707a.5.5 0 01-.765-.638l.058-.07.707-.706a.5.5 0 01.707 0zM14.5 2a.5.5 0 01.492.41L15 2.5v1a.5.5 0 01-.992.09L14 3.5v-1a.5.5 0 01.5-.5z" fill="#ED1B2E" fill-rule="evenodd"/></svg>