<svg width="24" height="24" xmlns="http://www.w3.org/2000/svg"><path d="M23.5 10a.5.5 0 01.5.5v5a.5.5 0 01-.854.354L21 13.707l-7.146 7.147a.5.5 0 01-.638.057l-.07-.057L9.5 17.207l-5.646 5.647a.5.5 0 01-.638.057l-.07-.057a.5.5 0 01-.057-.638l.057-.07 6-6a.5.5 0 01.638-.057l.07.057 3.646 3.647L20.293 13l-2.147-2.146a.5.5 0 01.268-.847L18.5 10zm-15-8a8.5 8.5 0 015.425 15.044.5.5 0 11-.639-.77 7.5 7.5 0 10-8.492.745.5.5 0 11-.495.869A8.5 8.5 0 018.5 2zm0 4a.5.5 0 01.492.41L9 6.5v.539c1.07.171 1.92.886 1.998 1.823a.5.5 0 01-.98.172l-.016-.089c-.033-.39-.433-.75-1.001-.887l-.002 2.031c.23.051.445.113.652.195.82.32 1.349.874 1.349 1.716 0 .996-.876 1.778-2 1.96v.54a.5.5 0 01-.992.09L8 14.5v-.54c-1.071-.171-1.92-.886-1.998-1.823a.5.5 0 01.98-.172l.016.089c.033.39.433.75 1.001.888V10.91l-.22-.054a4.075 4.075 0 01-.428-.14C6.531 10.397 6 9.843 6 9.001c0-.997.875-1.78 2-1.961V6.5a.5.5 0 01.5-.5zM23 11h-3.293l1.64 1.64a.51.51 0 01.007.006l.004.006L23 14.293V11zm-14 .12v1.82c.594-.143 1-.532 1-.94 0-.351-.236-.598-.714-.785a3.015 3.015 0 00-.285-.095zM7 9c0 .352.237.599.716.786.09.035.183.066.283.094V8.058c-.594.145-.999.534-.999.943z" fill="#ED1B2E" fill-rule="evenodd"/></svg>