<svg width="24" height="24" xmlns="http://www.w3.org/2000/svg"><path d="M.5 10a.5.5 0 01.5.5V19h2.135l.203-.65c.236-.765.472-1.566.692-2.363.12-.438.233-.862.336-1.27.303-1.201.513-2.212.605-2.967a3.384 3.384 0 00-.478-.175.5.5 0 11.283-.959c.485.143.84.305 1.068.521a.5.5 0 01.154.407c-.074.843-.306 2.006-.662 3.418-.105.415-.22.847-.342 1.29a84.919 84.919 0 01-.7 2.393l.157-.522 7.226 2.41c1.798.68 2.08.661 5.806-.861l.31-.127 4.973-2.26a2.287 2.287 0 00-2.314-.758l-3.83.958-1.346.336a3.498 3.498 0 01-1.536.037l-4.338-.868a.5.5 0 11.196-.98l4.338.868c.363.072.737.063 1.097-.027l.96-.24c-.062-.916-.514-1.35-1.6-1.623l-7.626-1.68a.5.5 0 11.215-.976l7.64 1.683c1.437.36 2.204 1.083 2.352 2.35l3.236-.808a3.287 3.287 0 013.737 1.72.5.5 0 01-.24.678l-5.517 2.508c-4.252 1.742-4.725 1.814-6.848 1.011l-7.184-2.392a73.48 73.48 0 01-.183.573A.5.5 0 013.5 20h-3a.5.5 0 01-.5-.5v-9a.5.5 0 01.5-.5zm18-3a3.5 3.5 0 110 7 3.5 3.5 0 010-7zm0 1a2.5 2.5 0 100 5 2.5 2.5 0 000-5zm0 1a.5.5 0 01.5.5v2a.5.5 0 11-1 0v-2a.5.5 0 01.5-.5zm-6-8a3.5 3.5 0 110 7 3.5 3.5 0 010-7zm0 1a2.5 2.5 0 100 5 2.5 2.5 0 000-5zm0 1a.5.5 0 01.5.5v2a.5.5 0 11-1 0v-2a.5.5 0 01.5-.5z" fill="#ED1B2E" fill-rule="evenodd"/></svg>