<svg width="24" height="24" xmlns="http://www.w3.org/2000/svg"><path d="M1 12.5a.5.5 0 01.5.5v8.5h2.135l.203-.65c.236-.765.472-1.566.692-2.363.12-.438.233-.862.336-1.27.303-1.201.513-2.213.605-2.968a4.715 4.715 0 00-.883-.28.5.5 0 01.227-.973c.73.17 1.238.365 1.529.641a.5.5 0 01.154.407c-.015.167-.035.347-.062.54l8.685 1.931c1.438.36 2.205 1.083 2.353 2.35l3.236-.808a3.288 3.288 0 013.737 1.72.5.5 0 01-.24.678l-5.517 2.508c-4.252 1.742-4.725 1.814-6.848 1.011l-7.184-2.392a73.48 73.48 0 01-.183.573A.5.5 0 014 22.5H1a.5.5 0 01-.5-.5v-9a.5.5 0 01.5-.5zm5.267 3.07a36.866 36.866 0 01-.431 1.892c-.105.415-.22.847-.342 1.29a84.919 84.919 0 01-.7 2.393l.157-.522 7.226 2.41c1.798.68 2.08.661 5.806-.861l.31-.127 4.973-2.26a2.29 2.29 0 00-2.314-.758l-3.83.958-1.346.336a3.498 3.498 0 01-1.536.037l-4.338-.868a.5.5 0 11.196-.98l4.338.868c.363.072.738.063 1.097-.027l.96-.24c-.062-.916-.514-1.35-1.601-1.623zM18.326.5c1.672 0 3.155 1.073 3.817 2.69.235.573.357 1.194.357 1.833 0 1.158-.432 2.24-1.19 3.163-.467.571-1.314 1.544-2.438 2.81l-.092.102a452.835 452.835 0 01-2.66 2.962l-.25.276a.5.5 0 01-.74 0l-.25-.276a510.777 510.777 0 01-2.66-2.962l-.092-.103C11.004 9.73 10.157 8.757 9.69 8.186 8.932 7.262 8.5 6.181 8.5 5.023 8.5 2.535 10.358.5 12.674.5c1.268 0 2.438.615 3.224 1.65a.5.5 0 01-.796.605C14.5 1.962 13.62 1.5 12.674 1.5 10.932 1.5 9.5 3.068 9.5 5.023c0 .913.345 1.775.963 2.53.456.557 1.297 1.523 2.413 2.778l.091.102a451.866 451.866 0 002.533 2.822 520.617 520.617 0 002.533-2.822l.091-.102c1.116-1.255 1.957-2.22 2.413-2.779.618-.754.963-1.616.963-2.529a3.83 3.83 0 00-.282-1.453c-.513-1.255-1.64-2.07-2.892-2.07-.182 0-.362.017-.538.05a.5.5 0 11-.186-.982c.237-.045.48-.068.724-.068zm-5.652 2a.5.5 0 110 1c-.624 0-1.174.666-1.174 1.523a.5.5 0 11-1 0c0-1.372.952-2.523 2.174-2.523z" fill="#ED1B2E" fill-rule="evenodd"/></svg>