<svg width="24" height="24" xmlns="http://www.w3.org/2000/svg"><path d="M5 17a2 2 0 11-.001 4.001A2 2 0 015 17zm14 0a2 2 0 11-.001 4.001A2 2 0 0119 17zM5 18a1 1 0 10.001 2.001A1 1 0 005 18zm14 0a1 1 0 10.001 2.001A1 1 0 0019 18zm-2.5-1a.5.5 0 01.09.992L16.5 18h-9a.5.5 0 01-.09-.992L7.5 17h9zM10.529 4l.145.01a1.5 1.5 0 011.32 1.348L12 5.5V7h2.895a.5.5 0 01.09.992l-.09.008H5.75L3 11.667V15.5a.5.5 0 01-.41.492L2.5 16H2v1h.5a.5.5 0 01.492.41L3 17.5a.5.5 0 01-.41.492L2.5 18h-1a.5.5 0 01-.492-.41L1 17.5v-2a.5.5 0 01.41-.492L1.5 15H2v-3.5a.5.5 0 01.057-.232L2.1 11.2l3-4a.5.5 0 01.307-.191L5.5 7H9V5.5a1.5 1.5 0 011.356-1.493L10.5 4h.029zM21.5 7a.5.5 0 01.294.095l.06.051 1 1a.5.5 0 01.14.275L23 8.5v7l-.001.01L23 17.5a.5.5 0 01-.41.492L22.5 18h-1a.5.5 0 01-.09-.992L21.5 17h.5v-1H6.5a.5.5 0 01-.152-.024l-.072-.029-2-1a.5.5 0 01.364-.927l.084.033L6.619 15 22 14.999V8.707L21.293 8h-1.392a.5.5 0 01-.492-.41L19.4 7.5a.5.5 0 01.41-.492L19.9 7h1.6zm-3 2a.5.5 0 01.492.41L19 9.5v1.132l.982-.565a.5.5 0 01.574.814l-.074.052-.982.567.982.567a.5.5 0 01-.418.904l-.082-.038-.982-.566V13.5a.5.5 0 01-.992.09L18 13.5v-1.135l-.982.568a.5.5 0 01-.574-.814l.074-.052.98-.568-.98-.566a.5.5 0 01.418-.904l.082.038.982.567V9.5a.5.5 0 01.5-.5zm-4 0a.5.5 0 01.492.41L15 9.5v3a.5.5 0 01-.41.492L14.5 13h-4a.5.5 0 01-.492-.41L10 12.5v-3a.5.5 0 01.41-.492L10.5 9h4zm-7 0a.5.5 0 01.492.41L8 9.5v3a.5.5 0 01-.41.492L7.5 13h-3a.5.5 0 01-.457-.705l.041-.072 2-3a.5.5 0 01.317-.213L6.5 9h1zm6.5 1h-3v2h3v-2zm-7 0h-.233l-1.333 2H7v-2zm3.496-5l-.086.008a.501.501 0 00-.402.402L10 5.5V7h1V5.5a.512.512 0 00-.255-.441l-.076-.035-.081-.018L10.496 5z" fill="#ED1B2E" fill-rule="evenodd"/></svg>