<svg width="24" height="24" xmlns="http://www.w3.org/2000/svg"><path d="M9 8a8 8 0 110 16A8 8 0 019 8zm10.5 5a3.5 3.5 0 013.495 3.308L23 16.5v5a2.5 2.5 0 11-.999-2l-.001-3a2.5 2.5 0 00-2.336-2.495L19.5 14h-1a.5.5 0 01-.09-.992L18.5 13h1zM9 9a7 7 0 100 14A7 7 0 009 9zm11.5 11a1.5 1.5 0 10-.001 2.999A1.5 1.5 0 0020.5 20zM9 14a2 2 0 11-.001 4.001A2 2 0 019 14zm0 1a1 1 0 10.001 2.001A1 1 0 009 15zm5-2a.5.5 0 01.09.992L14 14h-3a.5.5 0 01-.09-.992L11 13h3zm-6.035-2.685l.025.087.5 2.5a.5.5 0 01-.955.283l-.025-.087-.5-2.5a.5.5 0 01.955-.283zM2.959 0a3.5 3.5 0 013.416 2.74l.036.185L6.924 6h8.919a4.5 4.5 0 013.01 1.155l.173.163.828.828a.5.5 0 01-.638.765l-.07-.057-.828-.828a3.5 3.5 0 00-2.261-1.02L15.843 7H6.5a.5.5 0 01-.47-.33l-.023-.088-.582-3.493a2.5 2.5 0 00-2.3-2.084L3 1.001a1 1 0 11-.704-.956.45.45 0 01.114-.037L2.5 0h.459z" fill="#ED1B2E" fill-rule="evenodd"/></svg>