<svg width="24" height="24" xmlns="http://www.w3.org/2000/svg"><path d="M12.146.146a.5.5 0 01.708 0C14.688 1.981 18.2 3 21.5 3a.5.5 0 01.5.5v1.717a.5.5 0 11-1 0V3.993c-3.194-.092-6.49-1.059-8.5-2.81-2.01 1.751-5.306 2.718-8.5 2.81V13.5c0 3.006 4.647 8.12 8.5 9.472C16.353 21.62 21 16.506 21 13.5V9.754a.5.5 0 111 0V13.5c0 3.531-5.086 9.085-9.345 10.475a.5.5 0 01-.31 0C8.086 22.585 3 17.031 3 13.5v-10a.5.5 0 01.5-.5c3.3 0 6.812-1.02 8.646-2.854zm.632 2.439c1.918 1.284 4.429 2.168 6.775 2.418A.5.5 0 0120 5.5v8c0 2.365-3.954 6.995-7.3 8.458a.5.5 0 01-.4 0C8.954 20.495 5 15.865 5 13.5v-8a.5.5 0 01.447-.497c2.346-.25 4.857-1.134 6.775-2.418a.5.5 0 01.556 0zM12.5 3.597C10.61 4.795 8.259 5.633 6 5.943V13.5c0 1.866 3.523 6.034 6.5 7.45 2.977-1.416 6.5-5.584 6.5-7.45V5.943c-2.259-.31-4.61-1.148-6.5-2.346zM12.498 6a.5.5 0 01.5.5l.001.525c1.595.16 2.881 1.074 2.997 2.3a.5.5 0 11-.995.094c-.062-.653-.888-1.248-2.002-1.388v3.047l.182.034c.331.066.64.145.934.248 1.151.4 1.883 1.08 1.883 2.14 0 1.304-1.327 2.306-3 2.475v.525a.5.5 0 11-1 0v-.524C10.403 15.816 9.117 14.9 9 13.674a.5.5 0 11.995-.094c.062.654.888 1.25 2.002 1.39v-3.048a6.93 6.93 0 01-1.114-.281c-1.153-.4-1.886-1.08-1.886-2.14 0-1.306 1.328-2.307 3-2.476V6.5a.5.5 0 01.5-.5zm.5 6.096v2.873c1.161-.147 2-.789 2-1.469 0-.532-.417-.92-1.212-1.196a5.956 5.956 0 00-.8-.21l.012.002zm-1-4.064c-1.16.146-2 .788-2 1.468 0 .532.418.92 1.214 1.196.247.086.512.154.802.212l-.016-.004z" fill="#ED1B2E" fill-rule="evenodd"/></svg>