<svg width="24" height="24" xmlns="http://www.w3.org/2000/svg"><path d="M15.997 3.978a.5.5 0 01.09.992l-.09.008h-8.28v.913H20.61a.5.5 0 01.492.41l.008.09v7.152h.912V4.978h-1.146a.5.5 0 01-.492-.41l-.008-.09a.5.5 0 01.41-.492l.09-.008h1.647a.5.5 0 01.492.41l.008.09v9.565a.5.5 0 01-.41.492l-.09.008h-1.414v1.414a.5.5 0 01-.41.491l-.09.009h-1.413v1.413a.5.5 0 01-.41.492l-.09.008h-1.413v1.413a.5.5 0 01-.41.492l-.09.008H1.479a.5.5 0 01-.5-.5v-9.566a.5.5 0 01.5-.5h1.413V8.304a.5.5 0 01.41-.492l.09-.008h1.413V6.391a.5.5 0 01.41-.492l.09-.008h1.413V4.478a.5.5 0 01.41-.492l.09-.008h8.78zm.285 6.739H1.978v8.565h14.304v-8.565zm-2.369.913a.5.5 0 01.492.41l.008.09c0 .224.162.41.375.45l.082.007a.5.5 0 01.492.41l.008.09v3.826a.5.5 0 01-.41.492l-.09.008a.457.457 0 00-.45.375l-.007.082a.5.5 0 01-.41.492l-.09.008h-.956a.5.5 0 01-.09-.992l.09-.008.545-.001.013-.035c.148-.374.445-.671.819-.82l.035-.012v-3.005l-.035-.012a1.462 1.462 0 01-.82-.819l-.012-.036h-.545a.5.5 0 01-.492-.41l-.008-.09a.5.5 0 01.41-.492l.09-.008h.956zm-8.609 0a.5.5 0 01.09.992l-.09.008h-.547l-.011.036a1.467 1.467 0 01-.819.82l-.036.011v3.005l.036.013c.373.148.671.445.819.819l.011.035h.547a.5.5 0 01.492.41l.008.09a.5.5 0 01-.41.493l-.09.008h-.956a.5.5 0 01-.492-.41l-.008-.09a.457.457 0 00-.375-.45l-.082-.007a.5.5 0 01-.492-.41l-.008-.09v-3.826a.5.5 0 01.41-.492l.09-.008a.46.46 0 00.45-.375l.007-.082a.5.5 0 01.41-.492l.09-.008h.956zm3.826 0a3.37 3.37 0 110 6.74 3.37 3.37 0 010-6.74zm0 1a2.37 2.37 0 100 4.74 2.37 2.37 0 000-4.74zM5.293 8.803l-1.402.001v.913h12.892a.5.5 0 01.492.41l.008.09v7.152h.912V8.804H5.293zM7.207 6.89l-1.403.001v.913h12.892a.5.5 0 01.492.41l.008.09v7.152h.912V6.891h-12.9z" fill="#ED1B2E" fill-rule="evenodd"/></svg>