<svg width="24" height="24" xmlns="http://www.w3.org/2000/svg"><path d="M14.5 0c.374 0 .726.22 1.123.602.17.166.347.36.528.58.189.23.373.473.544.717l-.067-.093.292-.188.32-.199.329-.193c.271-.156.535-.297.789-.419 1.164-.559 2.01-.713 2.517-.138.675.766.232 1.838-.9 3.192-.3.358-.647.732-1.033 1.116a27.92 27.92 0 01-1.462 1.354L17.853 6h.647a.5.5 0 01.09.992L18.5 7h-.957l.107.135.182.234c.709.91 1.417 1.864 2.079 2.815a44.32 44.32 0 011.043 1.566C22.262 13.812 23 15.418 23 16.5c0 .52-.05 1.029-.152 1.522.456.308.84.734 1.1 1.255a.5.5 0 01-.16.632l-.081.046-5.517 2.508-1.195.484c-2.9 1.156-3.63 1.241-5.19.697l-.463-.17-7.185-2.395-.182.576a.5.5 0 01-.384.337L3.5 22h-3a.5.5 0 01-.492-.41L0 21.5v-9a.5.5 0 01.992-.09L1 12.5V21h2.134l.204-.65c.236-.765.472-1.566.692-2.363.12-.438.233-.862.336-1.27.287-1.137.49-2.103.59-2.844l.014-.124a3.069 3.069 0 00-.354-.136l-.146-.045a.5.5 0 01.278-.96c.5.145.864.31 1.096.529a.5.5 0 01.154.407c-.015.167-.035.347-.062.54l.629.14.05-.122c.35-.829.968-1.872 1.802-3.09.256-.374.53-.76.819-1.157.473-.648.97-1.302 1.475-1.943l.68-.851.048-.061H10.5a.5.5 0 01-.09-.992L10.5 6l.646.002a27.128 27.128 0 01-1.088-1.025 17.066 17.066 0 01-1.032-1.116C7.893 2.507 7.45 1.435 8.126.669c.507-.575 1.352-.421 2.516.138.254.122.518.263.79.419.33.19.654.392.96.594l-.021-.013.11-.151.181-.24.187-.234c.18-.22.357-.414.528-.58C13.774.22 14.127 0 14.5 0zM5.422 16.614l-.086.348c-.105.415-.22.847-.342 1.29a81.6 81.6 0 01-.462 1.608l-.081.263 7.226 2.41.41.15c1.37.486 1.908.4 4.822-.778l.884-.36 4.973-2.261a2.288 2.288 0 00-2.14-.793l-.174.036-3.83.958-1.346.336c-.42.105-.853.131-1.28.079l-.256-.042-4.338-.868a.5.5 0 01.106-.99l.09.01 4.338.868c.29.058.588.063.88.017l.217-.044.958-.24-.006-.09c-.08-.805-.49-1.22-1.414-1.485l-.18-.048-8.624-1.918c-.092.469-.208.985-.345 1.544zM16.264 7h-3.533l-.563.69-.172.213a69.388 69.388 0 00-1.952 2.541c-.284.39-.552.767-.801 1.132-.785 1.146-1.365 2.123-1.687 2.87L14 15.875v-.966l-.222-.054a4.072 4.072 0 01-.427-.139C12.531 14.397 12 13.843 12 13c0-.997.875-1.779 2-1.96v-.54a.5.5 0 01.992-.09l.008.09v.54c1.071.171 1.92.886 1.998 1.822a.5.5 0 01-.98.173l-.016-.089c-.033-.39-.433-.75-1-.888L15 14.09l.225.055c.147.04.288.086.426.14.82.32 1.349.874 1.349 1.716 0 .428-.166.829-.457 1.159.232.33.375.73.43 1.206l3.237-.808a3.278 3.278 0 011.7.028c.06-.352.09-.715.09-1.085 0-.823-.686-2.315-1.89-4.215a43.33 43.33 0 00-1.02-1.53 65.003 65.003 0 00-2.047-2.772l-.518-.657L16.264 7zm-1.262 8.12L15 16a.501.501 0 01-.014.12c.307.098.58.218.817.362A.731.731 0 0016 16c0-.351-.236-.598-.714-.785a3.023 3.023 0 00-.284-.095zM13 13c0 .352.237.599.715.786.09.035.185.066.284.094v-1.82c-.593.143-1 .532-1 .941zm1.5-12c-.033 0-.207.109-.428.322a5.953 5.953 0 00-.451.496c-.172.208-.34.433-.5.658l-.201.295a.5.5 0 01-.711.135 16.014 16.014 0 00-.37-.252l-.294-.19c-.2-.128-.405-.252-.612-.371a11.212 11.212 0 00-.724-.384c-.748-.36-1.267-.454-1.334-.378-.189.213.1.91.918 1.888.278.333.606.686.971 1.05.448.447.93.89 1.41 1.305l.12.103.381.322h3.647l.384-.322.6-.527c.318-.287.631-.583.93-.88.365-.365.693-.718.971-1.051.818-.978 1.107-1.675.918-1.888-.067-.076-.586.018-1.334.378-.23.11-.473.24-.724.384-.31.178-.617.37-.906.561l-.099.066-.27.186a.5.5 0 01-.712-.135l-.202-.295c-.158-.225-.327-.45-.499-.658a5.966 5.966 0 00-.45-.496C14.706 1.11 14.532 1 14.5 1z" fill="#ED1B2E" fill-rule="evenodd"/></svg>