<svg width="24" height="24" xmlns="http://www.w3.org/2000/svg"><path d="M12.5 2.191c.245 0 .478.063.741.191l5.298 2.932a.5.5 0 11-.484.875l-5.273-2.92a.661.661 0 00-.282-.078.485.485 0 00-.166.032l-.09.04L1.577 9.16l-.039.076-.02.062-.013.061-.004.058c0 .038.006.077.015.113l.021.065.041.078 3.923 2.17v-.51c0-1.703 3.146-2.832 7-2.832 3.758 0 6.842 1.073 6.994 2.706l.006.127v.509l2.13-1.18a.5.5 0 01.284-.155l1.507-.833.04-.074a.514.514 0 00.039-.184.477.477 0 00-.014-.113l-.023-.067-.037-.076-.021-.01-.941-.52a.5.5 0 01.484-.876l.998.55.08.054c.106.08.192.182.262.3l.087.167.022.052c.066.177.103.352.103.54 0 .187-.037.364-.112.559l-.032.069c-.08.173-.187.319-.336.434a.706.706 0 01-.098.062l-.052.025-1.37.758v3.557l.947 1.895a.5.5 0 01-.847.524l-.047-.077L22 16.118l-.553 1.105a.5.5 0 01-.587.257l-.084-.033a.5.5 0 01-.256-.587l.033-.084.947-1.897v-3.002l-2 1.108V16a.499.499 0 01-.035.182c.023.104.035.21.035.318 0 1.786-3.154 3-7 3s-7-1.214-7-3c0-.108.012-.214.034-.318a.532.532 0 01-.026-.093L5.5 16v-3.013l-4.367-2.418-.085-.044-.074-.05a1.05 1.05 0 01-.257-.29l-.094-.183-.02-.045a1.499 1.499 0 01-.103-.54c0-.187.037-.362.112-.56l.032-.07a1.11 1.11 0 01.336-.432l.062-.042 10.728-5.93c.188-.099.38-.162.58-.184l.15-.008zm0 12.309c-3.332 0-6 1.026-6 2 0 .973 2.668 2 6 2s6-1.027 6-2c0-.974-2.668-2-6-2zm0-5c-3.23 0-5.847.906-5.993 1.758l-.007.075v3.566c1.228-.872 3.463-1.4 6-1.4s4.773.528 6.001 1.4l-.001-3.566c0-.873-2.676-1.833-6-1.833z" fill="#ED1B2E" fill-rule="evenodd"/></svg>