<svg width="24" height="24" xmlns="http://www.w3.org/2000/svg"><path d="M18.693 12.929a.5.5 0 11.364.931l-5.684 2.218 5.336 2.083a1.882 1.882 0 011.395-.787l.146-.006c1.032 0 1.875.823 1.875 1.843s-.843 1.842-1.875 1.842-1.875-.823-1.875-1.842c0-.036.001-.07.003-.105l-6.379-2.491-6.377 2.49c.002.035.003.07.003.106 0 1.02-.843 1.842-1.875 1.842s-1.875-.823-1.875-1.842c0-1.02.843-1.843 1.875-1.843.637 0 1.202.314 1.541.793l5.334-2.083-5.682-2.218a.5.5 0 01-.309-.56l.025-.087a.5.5 0 01.648-.284l6.692 2.613zM3.75 18.369c-.486 0-.875.38-.875.842 0 .461.39.842.875.842.486 0 .875-.38.875-.842 0-.462-.39-.843-.875-.843zm16.5 0c-.486 0-.875.38-.875.842 0 .461.39.842.875.842.486 0 .875-.38.875-.842 0-.462-.39-.843-.875-.843zM2.323 8.42a.5.5 0 010 1h-.365v1.684h20.084V9.421H6.762a.5.5 0 110-1h15.78a.5.5 0 01.5.5v2.684a.5.5 0 01-.5.5H1.458a.5.5 0 01-.5-.5V8.921a.5.5 0 01.5-.5zm20.719-2.497v1.208a.5.5 0 01-.5.5h-7.334a.5.5 0 01-.442-.733c.783-1.493 3.097-2.326 6.158-2.773 1.115-.163 2.118.684 2.118 1.798zm-1.973-.808c-2.067.301-3.785.813-4.744 1.516h5.717v-.708c0-.499-.457-.884-.973-.808z" fill="#ED1B2E" fill-rule="evenodd"/></svg>