<svg width="24" height="24" xmlns="http://www.w3.org/2000/svg"><path d="M9.223.084a.5.5 0 01.554 0l4.5 3c.031.02.059.043.083.068a2.5 2.5 0 011.635 2.184L16 5.5v.824a.5.5 0 01-.992.09L15 6.324V5.5a1.5 1.5 0 00-1.355-1.493L13.5 4h-8a1.5 1.5 0 00-1.493 1.355L4 5.5v12a1.5 1.5 0 001.355 1.493L5.5 19h8a1.5 1.5 0 001.493-1.355L15 17.5v-6.44a.5.5 0 01.992-.09l.008.09v6.44a2.5 2.5 0 01-2.336 2.495L13.5 20h-2.458v1.5a.5.5 0 01-.41.492l-.09.008-.442.001c.281.631 1.177.999 2.945.999 2.646 0 4.124-.523 4.222-1.404l.006-.096c0-1.758 1.969-2.5 5.227-2.5a.5.5 0 110 1c-2.74 0-4.227.56-4.227 1.5 0 1.758-1.97 2.5-5.228 2.5-2.386 0-3.728-.719-3.995-1.999L8.459 22a.5.5 0 01-.5-.5V20H5.5a2.5 2.5 0 01-2.495-2.336L3 17.5v-12a2.5 2.5 0 011.64-2.348.522.522 0 01.083-.068zM10.042 20H8.959v1h1.083v-1zm2.143-8c.99 0 1.815.733 1.815 1.669v2.662c0 .936-.825 1.669-1.815 1.669h-2.37C8.825 18 8 17.267 8 16.331V13.67c0-.937.825-1.67 1.815-1.67zM6.5 17a.5.5 0 01.09.992L6.5 18h-1a.5.5 0 01-.09-.992L5.5 17h1zm5.685-4h-2.37c-.463 0-.815.313-.815.669v2.662c0 .356.352.669.815.669h2.37c.462 0 .815-.313.815-.669V13.67c0-.356-.353-.669-.815-.669zM6.5 15a.5.5 0 01.09.992L6.5 16h-1a.5.5 0 01-.09-.992L5.5 15h1zm0-2a.5.5 0 01.09.992L6.5 14h-1a.5.5 0 01-.09-.992L5.5 13h1zm0-2a.5.5 0 01.09.992L6.5 12h-1a.5.5 0 01-.09-.992L5.5 11h1zm0-2a.5.5 0 01.09.992L6.5 10h-1a.5.5 0 01-.09-.992L5.5 9h1zm0-2a.5.5 0 01.09.992L6.5 8h-1a.5.5 0 01-.09-.992L5.5 7h1zm3-5.899L6.651 3h5.697L9.5 1.101z" fill="#ED1B2E" fill-rule="evenodd"/></svg>