<svg width="24" height="24" xmlns="http://www.w3.org/2000/svg"><path d="M3.3 4a.5.5 0 110 1h-.8A1.5 1.5 0 001 6.5V11l10.339.001a5.494 5.494 0 01-2.04-2.709l-.071-.222c-.33-1.11.733-2.173 1.842-1.842a5.493 5.493 0 012.931 2.11L14 5H7.695a.5.5 0 01-.491-.41l-.009-.09a.5.5 0 01.5-.5H21.5A2.5 2.5 0 0124 6.5v11a2.5 2.5 0 01-2.5 2.5h-19A2.5 2.5 0 010 17.5v-11A2.5 2.5 0 012.5 4zm9.992 8H1v5.5a1.5 1.5 0 001.355 1.493L2.5 19H14v-6.294l-2.146 2.148a.5.5 0 01-.638.057l-.07-.057a.5.5 0 010-.708L13.292 12zM23 12h-7.293l2.147 2.146a.5.5 0 01.057.638l-.057.07a.5.5 0 01-.708 0L15 12.707V19h6.5a1.5 1.5 0 001.493-1.355L23 17.5V12zm-12.5 4a.5.5 0 110 1h-7a.5.5 0 110-1zm-3-2a.5.5 0 110 1h-4a.5.5 0 110-1zm14-9H15v3.338a5.492 5.492 0 012.93-2.11c1.11-.33 2.173.733 1.842 1.842a5.493 5.493 0 01-2.11 2.931L23 11V6.5a1.5 1.5 0 00-1.355-1.493L21.5 5zM10.785 7.186c-.348-.104-.703.251-.599.6a4.502 4.502 0 003.783 3.183 4.502 4.502 0 00-3.184-3.783zm7.43 0a4.502 4.502 0 00-3.184 3.783 4.502 4.502 0 003.783-3.184c.104-.348-.251-.703-.6-.599z" fill="#ED1B2E" fill-rule="evenodd"/></svg>